<svg class="nav-icon" viewBox="0 0 18 18" fill="none" xmlns="http://www.w3.org/2000/svg"><path d="M9 9.8335C9.66304 9.8335 10.2989 9.5701 10.7678 9.10126C11.2366 8.63242 11.5 7.99654 11.5 7.3335C11.5 6.67045 11.2366 6.03457 10.7678 5.56573C10.2989 5.09689 9.66304 4.8335 9 4.8335C8.33696 4.8335 7.70107 5.09689 7.23223 5.56573C6.76339 6.03457 6.5 6.67045 6.5 7.3335C6.5 7.99654 6.76339 8.63242 7.23223 9.10126C7.70107 9.5701 8.33696 9.8335 9 9.8335Z" stroke-width="1.4" stroke-linecap="round" stroke-linejoin="round"></path><path d="M9 1.5C15 1.5 16.5 3 16.5 9C16.5 15 15 16.5 9 16.5C3 16.5 1.5 15 1.5 9C1.5 3 3 1.5 9 1.5Z" stroke-width="1.4" stroke-linecap="round" stroke-linejoin="round"></path><path d="M4 15.7085V15.6668C4 14.7828 4.35119 13.9349 4.97631 13.3098C5.60143 12.6847 6.44928 12.3335 7.33333 12.3335H10.6667C11.5507 12.3335 12.3986 12.6847 13.0237 13.3098C13.6488 13.9349 14 14.7828 14 15.6668V15.7085" stroke-width="1.4" stroke-linecap="round" stroke-linejoin="round"></path></svg>