<svg class="nav-icon" viewBox="0 0 17 16" fill="none" xmlns="http://www.w3.org/2000/svg"><path d="M12.1663 6.16676L13.4163 4.91676C13.6352 4.69789 13.8088 4.43805 13.9273 4.15208C14.0457 3.86612 14.1067 3.55962 14.1067 3.25009C14.1067 2.94056 14.0457 2.63406 13.9273 2.3481C13.8088 2.06213 13.6352 1.80229 13.4163 1.58342C13.1975 1.36455 12.9376 1.19094 12.6517 1.07248C12.3657 0.954033 12.0592 0.893066 11.7497 0.893066C11.4401 0.893066 11.1336 0.954033 10.8477 1.07248C10.5617 1.19094 10.3019 1.36455 10.083 1.58342L1.33301 10.3334V13.6668H4.66634L6.33301 12.0001" stroke-width="1.4" stroke-linecap="round" stroke-linejoin="round"></path><path d="M13.0004 15.3335L15.7921 12.5968C15.9633 12.4307 16.0995 12.232 16.1926 12.0124C16.2857 11.7927 16.3339 11.5567 16.3343 11.3181C16.3347 11.0796 16.2873 10.8434 16.1948 10.6235C16.1024 10.4035 15.9669 10.2044 15.7963 10.0377C15.448 9.69712 14.9806 9.50602 14.4935 9.50509C14.0065 9.50415 13.5383 9.69346 13.1888 10.0327L13.0021 10.216L12.8163 10.0327C12.4681 9.69237 12.0008 9.50143 11.5139 9.50049C11.0271 9.49956 10.5591 9.68871 10.2096 10.0277C10.0383 10.1937 9.9021 10.3924 9.80891 10.612C9.71572 10.8316 9.66746 11.0677 9.667 11.3062C9.66653 11.5447 9.71386 11.781 9.80619 12.0009C9.89853 12.2209 10.034 12.4201 10.2046 12.5868L13.0004 15.3335Z" stroke-width="1.4" stroke-linecap="round" stroke-linejoin="round"></path></svg>