<svg class="nav-icon" viewBox="0 0 18 17" fill="none" xmlns="http://www.w3.org/2000/svg"><path d="M5.66699 5.5H12.3337" stroke-width="1.4" stroke-linecap="round" stroke-linejoin="round"></path><path d="M5.66699 8.8335H10.667" stroke-width="1.4" stroke-linecap="round" stroke-linejoin="round"></path><path d="M14 1.3335C14.663 1.3335 15.2989 1.59689 15.7678 2.06573C16.2366 2.53457 16.5 3.17045 16.5 3.8335V10.5002C16.5 11.1632 16.2366 11.7991 15.7678 12.2679C15.2989 12.7368 14.663 13.0002 14 13.0002H9.83333L5.66667 15.5002V13.0002H4C3.33696 13.0002 2.70107 12.7368 2.23223 12.2679C1.76339 11.7991 1.5 11.1632 1.5 10.5002V3.8335C1.5 3.17045 1.76339 2.53457 2.23223 2.06573C2.70107 1.59689 3.33696 1.3335 4 1.3335H14Z" stroke-width="1.4" stroke-linecap="round" stroke-linejoin="round"></path></svg>