<svg class="nav-icon" viewBox="0 0 15 15" fill="none" xmlns="http://www.w3.org/2000/svg">
                      <path d="M13.475 4.92481L9.03083 1.46814C8.64082 1.16473 8.1608 1 7.66667 1C7.17254 1 6.69251 1.16473 6.3025 1.46814L1.8575 4.92481C1.59037 5.13254 1.37424 5.39858 1.22563 5.7026C1.07701 6.00662 0.99984 6.34058 1 6.67897V12.679C1 13.121 1.17559 13.5449 1.48816 13.8575C1.80072 14.17 2.22464 14.3456 2.66667 14.3456H12.6667C13.1087 14.3456 13.5326 14.17 13.8452 13.8575C14.1577 13.5449 14.3333 13.121 14.3333 12.679V6.67897C14.3333 5.99314 14.0167 5.34564 13.475 4.92481Z" stroke-width="1.4" stroke-linecap="round" stroke-linejoin="round"></path>
                      <path d="M10.9753 10.1665C9.13359 11.2773 6.14859 11.2773 4.30859 10.1665" stroke-width="1.4" stroke-linecap="round" stroke-linejoin="round"></path>
                    </svg>