<svg class="nav-icon" viewBox="0 0 18 17" fill="none" xmlns="http://www.w3.org/2000/svg"><path d="M2.00326 3.99733L7.95159 1.40649C8.04974 1.36442 8.15533 1.34243 8.26212 1.34181C8.3689 1.34119 8.47473 1.36196 8.57337 1.40289C8.67201 1.44382 8.76145 1.50408 8.83642 1.58013C8.9114 1.65617 8.97039 1.74646 9.00992 1.84566L13.1133 11.764C13.1985 11.9651 13.2014 12.1917 13.1213 12.3949C13.0412 12.5982 12.8845 12.7618 12.6849 12.8507L6.73742 15.4415C6.63922 15.4837 6.53356 15.5058 6.42668 15.5065C6.3198 15.5072 6.21387 15.4864 6.11514 15.4455C6.0164 15.4046 5.92688 15.3442 5.85184 15.2681C5.7768 15.192 5.71778 15.1016 5.67826 15.0023L1.57492 5.08316C1.48963 4.88204 1.48673 4.65546 1.56684 4.45222C1.64696 4.24898 1.80367 4.08616 2.00326 3.99733Z" stroke-width="1.4" stroke-linecap="round" stroke-linejoin="round"></path><path d="M11.5 1.3335H12.3333C12.5543 1.3335 12.7663 1.42129 12.9226 1.57757C13.0789 1.73385 13.1667 1.94582 13.1667 2.16683V5.0835" stroke-width="1.4" stroke-linecap="round" stroke-linejoin="round"></path><path d="M15.6663 3C15.8863 3.09333 16.0997 3.18083 16.3063 3.2625C16.5098 3.34882 16.6706 3.51241 16.7534 3.71729C16.8362 3.92217 16.8343 4.15155 16.748 4.355L14.833 8.83334" stroke-width="1.4" stroke-linecap="round" stroke-linejoin="round"></path></svg>